<?xml version="1.0" standalone="no"?>
<!DOCTYPE svg PUBLIC "-//W3C//DTD SVG 20010904//EN"
 "http://www.w3.org/TR/2001/REC-SVG-20010904/DTD/svg10.dtd">
<svg version="1.0" xmlns="http://www.w3.org/2000/svg"
 width="2661.000000pt" height="2661.000000pt" viewBox="0 0 2661.000000 2661.000000"
 preserveAspectRatio="xMidYMid meet">
<metadata>
Created by potrace 1.11, written by Peter Selinger 2001-2013
</metadata>
<g transform="translate(0.000000,2661.000000) scale(0.100000,-0.100000)"
fill="#000000" stroke="none">
<path d="M15382 24959 c-3017 -117 -6095 -1144 -8752 -2918 -530 -355 -1158
-826 -1544 -1160 -26 -23 -51 -41 -56 -41 -5 0 -165 90 -356 201 -191 111
-360 206 -376 211 -40 14 -83 -5 -102 -47 -11 -22 -16 -62 -16 -122 0 -48 43
-925 95 -1948 52 -1023 97 -1916 101 -1985 10 -200 28 -240 110 -240 37 0
5164 911 5299 941 109 25 157 67 135 118 -15 38 -36 52 -303 207 -128 75 -236
139 -240 144 -5 4 103 121 240 260 1835 1864 3923 3150 5958 3670 431 110 839
180 1300 222 184 17 760 16 930 0 1160 -115 1961 -544 2429 -1302 615 -994
702 -2632 245 -4609 -42 -177 -136 -538 -145 -553 -3 -4 -4307 -8 -9564 -8
l-9560 0 -45 -89 c-124 -248 -323 -714 -453 -1061 -849 -2274 -940 -4584 -263
-6620 596 -1788 1738 -3310 3341 -4450 1564 -1113 3516 -1822 5655 -2054 557
-61 933 -80 1565 -80 510 0 738 7 1160 40 1762 134 3529 574 5194 1294 449
194 1015 470 1421 693 116 63 213 113 217 111 4 -2 53 -68 109 -147 113 -158
151 -202 191 -223 57 -30 122 -8 171 58 28 38 1827 3515 1845 3567 18 51 15
79 -13 106 -21 22 -33 25 -90 25 -59 0 -1069 -163 -3234 -521 -455 -75 -740
-126 -767 -138 -47 -21 -64 -45 -64 -91 0 -44 14 -68 161 -271 72 -99 132
-186 135 -192 2 -7 -37 -29 -103 -56 -2336 -950 -4477 -1359 -6268 -1196
-1069 98 -2013 403 -2644 855 -334 238 -668 570 -918 910 -376 512 -665 1120
-868 1829 -287 1005 -376 2187 -245 3271 11 91 23 177 26 192 l6 28 9707 0
9707 0 58 158 c381 1026 603 2036 682 3102 21 281 24 981 6 1245 -88 1237
-371 2312 -883 3350 -1347 2734 -4053 4584 -7529 5150 -879 142 -1867 201
-2798 164z"/>
</g>
</svg>
